/* XPM */
static char *_a94e1db0db040cc9c36afb3c00ca89aga03nBvGJmTOMJXh[] = {
/* columns rows colors chars-per-pixel */
"128 128 6 1 ",
"  c None",
". c #161C2E",
"X c #AC7A58",
"o c #CEA554",
"O c #E9F044",
"+ c white",
/* pixels */
"                                                                                                                                ",
"                                                                                                                                ",
"                                                                                                                                ",
"                                                                                                                                ",
"                                                                                                                                ",
"                                                                                                                                ",
"                                                                                                                                ",
"                                                                                                                                ",
"                                                                                                                                ",
"                                                                                                                                ",
"                                                                                                                                ",
"                                                                                                                                ",
"                                                                                                                                ",
"                                                                                                                                ",
"                                                                                                                                ",
"                                                                                                                                ",
"                                                                                                                                ",
"                                                                                                                                ",
"                                                                                                                                ",
"                                                                                                                                ",
"                                                                                                                                ",
"                                                                                                                                ",
"                                                                                                                                ",
"                                                                                                                                ",
"                                                                                                                                ",
"                                                                                                                                ",
"                                                                                                                                ",
"                                                                                                                                ",
"                                                                                                                                ",
"                                                                                                                                ",
"                                                                                                                                ",
"                                                                                                                                ",
"                                                                                                                                ",
"                                                                                                                                ",
"                                                                                                                                ",
"                                                                                                                                ",
"                                                                                                                                ",
"                                                                                                                                ",
"                                                                                                                                ",
"                                                                                                                                ",
"                                                                                                                                ",
"                                                                                                                                ",
"                                                                                                                                ",
"                                                                                                                                ",
"                                                                                                                                ",
"                                                                                                                                ",
"                                                                                                                                ",
"                                                                                                                                ",
"                                                                                                                                ",
"                                                                                                                                ",
"                                                                                                                                ",
"                                                                              .....                                             ",
"                                                                              .......                                           ",
"                                                                              ..O.....                                          ",
"                                                                              ..OOOO...                                         ",
"                                                                              ..OOOOOO..                                        ",
"                                                                            ....OooOOOO..                                       ",
"                                                                           .....OoooOOoo..                                      ",
"                                                                           ......ooOOooo...                                     ",
"                                                                          ...+++...Oooooo..                                     ",
"                                                                   ..........++++...oo.....                                     ",
"                                                                 .............++++.......                                       ",
"                                                               ......OOOOOO....+++O....                                         ",
"                                                              .....OOO++++OOO....OOO...                                         ",
"                                                              ....OOO+++++++OOo...OO...                                         ",
"                                                             ....OOOO+++++++OOOo.......                                         ",
"                                                             ....OOOO+++++++OOOo......                                          ",
"                                                            ...OOOOOO+++XX++OOOoo....                                           ",
"                                                          .....OOOOOO++XXX++OOOOooo..                                           ",
"                                                      ........OOO.....XXX+++OOOOooo...                                          ",
"                                                     .......XXoo.......XXXOOOOOOooo...                                          ",
"                                                    .....OOooXo....oo..XXXOOOOOOooo...                                          ",
"                                                   ...OOOOOoooo...oooOOOXXXOOOOOoooo..                                          ",
"                                                  ...O++++OOOoo....ooOOOOOOOOOOooooo..                                          ",
"                                                 ...OO++++OOOoo.....ooOOOOOOOOOooooo..                                          ",
"                                                 ..OO+++++OOOOO........OOOOOOOoooooX..                                          ",
"                                                ...OO+++++OXXOOOO.......ooOOOOoooXXX..                                          ",
"                                                ...OO+++OOOXXXOO...Oo...ooooooooXXXX..                                          ",
"                                                ..oOOOOOOOOXXXX...OOoo..ooXXXXXXXXXX..                                          ",
"                                                ..ooOOOOOOOOXXX...OOO...oooXXXXXXXX...                                          ",
"                                                ..ooOOOOOOOOOXXXX.......OOooXXXXXX...                                           ",
"                                                ..ooOOOOOOOOOXXXXXXX...OOOOooXXXX....                                           ",
"                                                ..ooOOOOOOOOXXXXXXXX...OOOOooXXX.....                                           ",
"                                                ..oooOOOOOOOXXXOOOOOOOOOOOOooXXXXX...                                           ",
"                                                ..ooooOOOOOOXXOOOOOOOOOOOOOooXXXXXX...                                          ",
"                                                 ..ooooOOOOOOOOOOOOOOOOOOOOooXXXXXX...                                          ",
"                                                 ..oooooOOOOOOOOOOOOOOOOOOoooXXXXXX...                                          ",
"                                                 ...oooooooOOOOOOOOOOOOOOoooXXXXXX....                                          ",
"                                                  ..ooooooooooOOOOOOOOOoooooXXXXXX...                                           ",
"                                                  ...ooooooooooooooooooooooXXXXXX....                                           ",
"                                                   ...ooooooooooooooooooooXXXXXX....                                            ",
"                                                    ...XooooooooooooooooXXXXXX......                                            ",
"                                                     ....XXoooooooooooXXXXXX.......                                             ",
"                                                      .......XXXoooXXXX..........                                               ",
"                                                        .....................                                                   ",
"                                                            ............                                                        ",
"                                                                                                                                ",
"                                                                                                                                ",
"                                                                                                                                ",
"                                                                                                                                ",
"                                                                                                                                ",
"                                                                                                                                ",
"                                                                                                                                ",
"                                                                                                                                ",
"                                                                                                                                ",
"                                                                                                                                ",
"                                                                                                                                ",
"                                                                                                                                ",
"                                                                                                                                ",
"                                                                                                                                ",
"                                                                                                                                ",
"                                                                                                                                ",
"                                                                                                                                ",
"                                                                                                                                ",
"                                                                                                                                ",
"                                                                                                                                ",
"                                                                                                                                ",
"                                                                                                                                ",
"                                                                                                                                ",
"                                                                                                                                ",
"                                                                                                                                ",
"                                                                                                                                ",
"                                                                                                                                ",
"                                                                                                                                ",
"                                                                                                                                ",
"                                                                                                                                ",
"                                                                                                                                ",
"                                                                                                                                "
};
