/* XPM */
static char *_09568150d9e4f17f4a350228fcb0ece4HxuBBXIdnfxQ7U9[] = {
/* columns rows colors chars-per-pixel */
"69 69 13 1 ",
"  c None",
". c #1D2131",
"X c #6E5B4B",
"o c #616267",
"O c #957B6C",
"+ c #B0A64F",
"@ c #D9DF78",
"# c #808080",
"$ c #95969B",
"% c #D2B585",
"& c #EDE1AD",
"* c #EBE6AE",
"= c gray80",
/* pixels */
"##========########========########========########========########===",
"##========########========########========########========########===",
"##========########========########========########========########===",
"##========########=====.....######========########========########===",
"##========########====..++....####========########========########===",
"##========########==....+@@@@...##========########========########===",
"==########========#...++@@@@@@@...########========########========###",
"==########========..X++@@@@++@@@@@.#######========########========###",
"==########=======...++++@@@@@@@@@@.#######========########========###",
"==########=======..+++++@@@@@@+@@@+..#####========########========###",
"==########=======.XX++++@@@@@@++@@@..#####========########========###",
"==########=======.XX++......@@@@.+@++#####========########========###",
"==########=======.+++........@@@..@@.#####========########========###",
"==########=======.X++XXXXX....+@@+.@+.####========########========###",
"##========#######.XX++XXXXX....+@+.++.====########========########===",
"##========#######..XXXXXXX.....X++++X.====########========########===",
"##========########..XXXXX...#...+XXXX.====########========########===",
"##========########=.......####..+.+..=====########========########===",
"##========########===....=###...XX+..=====########========########===",
"##========########=======...O..X..X....===########========###%####===",
"##========########======..OOO.XX...%%...==########========##%%####===",
"##========########=====...           %...=########========#%%%####===",
"==########========####..OO..&&&&%%%&&&&%..========########%% .====###",
"==########========####..OO%&&&&&&&&&&&&%%.========#######%%  .====###",
"==########========####..OO%%&&&        &%..=======######.%  *.====###",
"==########========###...OO%%&&&&&&&    &&..=======#####%.   *.====###",
"==########========###..OOO%%&&&&&&&  .%&&%.=======####%%*  %*.====###",
"==########========###..OOO%%%%&&&&&&&..%&&..======####%%* %%*.====###",
"==########========##..OOO%%%%%%&&&   ..%%&..======####. * %**.====###",
"==########========##..OOO%%%%%%%%&   ..%%&%.======###.. *%%*..====###",
"##========##...###==..OO%%%%%%%%&&&  ...%&&..#####===.**%%%%.#####===",
"##========#....###==..OO%%%%%%%%&&&  ...%&&..#####===.**%%%..#####===",
"##========#..%%..#==....OOO%.................#####==.**%%%..######===",
"##========#...%%..==....OO%%%%...............#####=..**%%%..######===",
"##========#....%%......OOO%%%%&&&........% ..#####=..*.%%%.#######===",
"##========#.....%%......O%%%%%%&&&&& ....%&&.#####=.**.%%..#######===",
"##========#..+++.%%%....OOOO%%%%&&&  ...%  &.#####.**O%%..########===",
"##========#..++++.OOO....OOO%%%%%&&&&..%% &&.####..**.%%..########===",
"==########=..+++++%%%%%%....%%%%%%&& ..%&&&........*..%%.#========###",
"==########=..+++++%%....***..%%%%%&&&  &&&&..@@+..%..%%.##========###",
"==########=..++@@+%%%%....%...%%%%&&&  &&&%...++.%%..%..##========###",
"==########=..+++@@**%%%%..%......%&&&  &&...@+...%%.OO..##========###",
"==########=..++++@**%%%%..%.......&&&&&&&.X.@@+..%..OO.###========###",
"==########=..++++@*%%%%%..%..X.......&&..XX..+++...OO...##========###",
"==########=..++++@%%**%%O.%..XXX.........XXX.++++........#========###",
"==########=..%%%++%%%%%%O.%..X++XXX....XX+X.....++XX..XX..========###",
"##========#..%%%*@%%%%%%OO%..X+++XXXX..XX+X..OO..XXXX.....########===",
"##========#..%%***++%%%%OO%..X+++++XXXX++X...OO%%...XXX.==########===",
"##========#..%%%%*+++%%%.O%..+++++++XXX++....O%%%....X..==########===",
"##========##.%%%%*@@@+++..%..XX+++++++++.....O%%%%%.....==########===",
"##========##..%%%%+@++++..%..XXX+++++++......OO%%%%..=====########===",
"##========###..%%%%+++++..O..............=#.........======########===",
"##========###..%%%%+++++..O.............==#.X......=======########===",
"##========#####..%%%++++OO.....###=....===#..X.###========########===",
"==########=====..%%%+++.O......$$$....####=....===########========###",
"==########=======.%%++....$$....$$...ooooo$=======########========###",
"==########=======..%+.O..o$$....$$...ooooo$$$=====########========###",
"==########========......oo......$$.....ooo$$$$====########========###",
"==########========##..oooo$$$$$$$$oooooooo$$$$====########========###",
"==########========##..oooo$$$$$$$$oooooooo$$$$====########========###",
"==########========####oooo$$$$$$$$oooooooo$$$=====########========###",
"==########========#####ooo$$$$$$$$oooooooo$=======########========###",
"##========########========##oooooo$$$$====########========########===",
"##========########========########========########========########===",
"##========########========########========########========########===",
"##========########========########========########========########===",
"##========########========########========########========########===",
"##========########========########========########========########===",
"##========########========########========########========########==="
};
