/* XPM */
static char *a3e6f61d9f49494aea90451b71d5c908CSLSIjl9NgKsVYtl[] = {
/* columns rows colors chars-per-pixel */
"69 67 9 1 ",
"  c black",
". c #1D2131",
"X c #464D53",
"o c #516969",
"O c #679B9B",
"+ c #808080",
"@ c #CEDDB5",
"# c #8CC1C2",
"$ c gray80",
/* pixels */
"+$$$$$$$$++++++++$$$$$$$$++++++++$$$$$$$$++++++++$$$$$$$$++++++++    ",
"+$$$$$$$$++++++++$$$$$$$$++++++++$$$$$$$$++++++++$$$$$$$$++++++++    ",
"...oooooooo######OOOO########################OOOOOOOOOOOOoo...X..    ",
"...oooooooo######OOO########################OOOOOOOOOOOOOOoooXX..    ",
"X..XooooooO#####OOO#########################OOOOOOOOOOOOOooooXX.X    ",
"X..XXooooOOO##OOOOO#########################OOOOOOOOOOOOOooXXXX.X    ",
"X..XXXoooOOOOOOOOOOO###########@@@@########OOOOOOOOOOOOOoXXXXXXXX    ",
"X..XXXXXXOOOOOOOOOOOO#####@@@@@@@@@@@@@@@OOOOOOOOOOOOooXXXXXXXXXX    ",
"X..XXXXXXXXXXXooooooOOOOO@@@@@@@ooooooo@@@@@OOoooooooooooXXXXXX.X    ",
"....XXXXXXXXooooooooooooooooooooooooooooooooooooooooooooooXXXX...    ",
"....XXXXXXXoooooooooooooooooooooooooooooooooooooooooooooooXXXX...    ",
".....XXXoXXoooooooooooooooooooooooooooooooooooooooooooooooXXX....    ",
".X...XXooXooooooooooooooooooooooooooooooooooooooooooooooooXX.....    ",
"XX....XooXooooooooooooooooooooooooooooooooooooooooooooooo.......X    ",
"XXXo....oooooooooooooooooooooooooooooooooooooooooooooo........o.X    ",
"XXXoo......ooo...................oooooo....................ooooXX    ",
"XXXoooo..................OO#################............oooooooXX    ",
"XXXooooooooooOOOOOO#####OOO#######################OOOOoooooooooXX    ",
"XXXoooooooooOOOOOOO######O########################OOOOOOOooooooXX    ",
"X.XooooooooOOOOOOO#######O########################OO#OOOOooooooXX    ",
"X..oooooOooOOOOOOO################################OO##OOOOoooooXX    ",
"X..ooooOOoOOOOOOOO################################O###OOOOOoooX.X    ",
"...XoooOOoOOOOOOO################################OO###OOOOOoooX..    ",
"...XXooOOoOOOOOOO################################OO##OOOOOOooXX..    ",
"...XXXoOOOOOOOOOO################################OOOOOOOOOOoXXX..    ",
"...XXXXXXOOOOOOOO######Oo####@@@@@@#############OOOOOOOOOXXXXXX..    ",
"...XXXXXXXXOOOOOOOOOOOOoooo@@@@@@@@@@@@@@@O##O#OOOOOOOOXXXXXXXX..    ",
"...XXXXXXXXXXooooooooooooooooooooooooooooooooooooooooooXXXXXXXX..    ",
"....XXXXXXoXooooooooooooooooooooooooooooooooooooooooooooXXoXXX...    ",
"....XXXXXooXoooooooooooooooooooooooooooooooooooooooooXooXXooXX...    ",
".....XXXXooooooooooooooooooooooooooooooooooooooooooooXXooXooX....    ",
".X....XXXoXooooooooooooooooooooooooooooooooooooooooooXXooXoo.....    ",
".XXo....XoXooooooooooooooooooooooooooooooooooooooooooXXooX.......    ",
"XXXoo.......ooooooooooooo....oooooooo.....oooooooo...........o..X    ",
"XXXoooo.......oooooooo.........oooo........................oooo.X    ",
"XXXooooooooooOOOOOOOOOO########################OOOOOoooooooooooXX    ",
"XXXoooooooooOOOOOOO##OO########################OOOOOOOoooooooooXX    ",
"XXXXoooooOoOOOOOOO###OO########################OOOOOOOOoooooooXXX    ",
"XXXXooooOOoOOOOOOO###O#########################OOOOOOOOOOoooooX.X    ",
"XX.XXoooOOOOOOOOOO##OO########################OOOOOOOooooooooXX.X    ",
"...XXXooOOOOOOOOOOO#OO########################OOOOOOOOooooooXXX..    ",
"...XXXXXOOoOOOOOOOOOOO##########@@@@@########OOOOOOOOOooooXXXXX..    ",
"...XXXXXXXXXXooooOOOOOO##@@@@@@@@@@@@@@@@@@OOOooooooooXXXXXXXXX..    ",
"....XXXXXXXXooooooooooooooooooooo@@@@@@@@ooooooooooooooXXXXXXX...    ",
"....XXXXXXXoooooooooooooooooooooooooooooooooooooooooooooXXXXXX...    ",
"....XXXXXXXoooooooooooooooooooooooooooooooooooooooooooXoXXXXXX.X.    ",
"XX...XXXXXXoooooooooooooooooooooooooooooooooooooooooooXooXoXX..XX    ",
"XXX...XXXXooooooooooooooooooooooooooooooooooooooooooooXXoXoX...XX    ",
"XXXo..XXXXooooooooooooooooooooooooooooooooooooooooooooXX......oXX    ",
"XXXoo..XXXooooooooooooooooooooooooooooooooooooooo............ooXX    ",
"XXXooo...XXooooooooooooooooo.....oo........................ooooXX    ",
"XXXoooo...................................OOOO.........ooooooooXX    ",
"X.Xoooooo.......OOOOO###OOO###########OO###OOOOOOOOOOOooooooooo.X    ",
"..XoooooooooOOOOOOOO#####O#############O###OOOOOOOOOOOOooOooooo..    ",
"..XoooooooOOOOOOOOOO###################OO###OOOOOOOOOOOOoOOoooo..    ",
"..XooooooOOOOOOOOOO#####################O###OOOOOOOOOOOOoOOoo....    ",
"..XXooooOOOOOOOOOOO#########################OOOOOOOOOOOOOoO......    ",
"..XXXXooOOOOOOOOOOO##########################OOOOOOOOOOOO....XX..    ",
"..XXXXXoOOOOOOOOOOO#######@@@@@########@@@@@##OOOOOOOOOO....XXX..    ",
"..XXXXXXXXooOOOOOOOO@@@@@@@@@@@@@@##@@@@@@@@@##OO.........XXXXX..    ",
"...XXXXXXooooooooooooooooooooooooooooooooooooo.........oXXXXXXX..    ",
"...XXXXXXooooooooooooooooooooooooooooooooooooooooooooooooXXXXXX..    ",
"....XXXXXooooooooooooooooooooooooooooooooooooooooooooooooXXoXX...    ",
".$...XXXXoooooooooooooooooooooooooooooooooooooooooooooooooXoXX..+    ",
"+$$.....XoooooooooooooooooooooooooooooooooooooooooooooooooXoo..++    ",
"+$$$$.......XXXooooooooo..................oooooooooooo........+++    ",
"                                                                     "
};
